<svg width="177" height="51" viewBox="0 0 177 51" fill="none" xmlns="http://www.w3.org/2000/svg">
<path d="M13.3906 50.4922C11.5 50.4922 9.78125 50.1172 8.23438 49.3672C6.70312 48.6172 5.46875 47.4844 4.53125 45.9688C3.60938 44.4531 3.10156 42.5547 3.00781 40.2734L3.05469 40.1328H7.48438C7.54688 42.4297 8.07031 44.1172 9.05469 45.1953C10.0547 46.2734 11.4766 46.8125 13.3203 46.8125C14.6172 46.8125 15.6797 46.5391 16.5078 45.9922C17.3359 45.4297 17.9453 44.6641 18.3359 43.6953C18.7422 42.7109 18.9453 41.5859 18.9453 40.3203V19.5078L14.3984 18.8984V15.875H27.3828V18.8516L23.5625 19.5078V40.3203C23.5625 42.3516 23.1719 44.1328 22.3906 45.6641C21.625 47.1953 20.4844 48.3828 18.9688 49.2266C17.4688 50.0703 15.6094 50.4922 13.3906 50.4922ZM44.8438 50.4922C42.6406 50.4922 40.6641 50.0703 38.9141 49.2266C37.1641 48.3828 35.6719 47.1953 34.4375 45.6641C33.2188 44.1172 32.2812 42.2891 31.625 40.1797C30.9844 38.0703 30.6641 35.7422 30.6641 33.1953V32.7031C30.6641 30.1719 30.9844 27.8516 31.625 25.7422C32.2812 23.6172 33.2188 21.7812 34.4375 20.2344C35.6719 18.6875 37.1641 17.4922 38.9141 16.6484C40.6641 15.8047 42.6406 15.3828 44.8438 15.3828C47.1719 15.3828 49.2188 15.8047 50.9844 16.6484C52.75 17.4922 54.2266 18.6875 55.4141 20.2344C56.6172 21.7812 57.5234 23.6172 58.1328 25.7422C58.7422 27.8516 59.0469 30.1719 59.0469 32.7031V33.1953C59.0469 35.7422 58.7422 38.0703 58.1328 40.1797C57.5234 42.2891 56.6172 44.1172 55.4141 45.6641C54.2266 47.1953 52.75 48.3828 50.9844 49.2266C49.2188 50.0703 47.1719 50.4922 44.8438 50.4922ZM44.8438 46.6484C47.1094 46.6484 48.9375 46.0859 50.3281 44.9609C51.7344 43.8359 52.7656 42.2656 53.4219 40.25C54.0781 38.2188 54.4062 35.8672 54.4062 33.1953V32.6562C54.4062 30 54.0703 27.6719 53.3984 25.6719C52.7422 23.6562 51.7109 22.0859 50.3047 20.9609C48.8984 19.8203 47.0781 19.25 44.8438 19.25C42.7969 19.25 41.0625 19.8203 39.6406 20.9609C38.2188 22.1016 37.1406 23.6797 36.4062 25.6953C35.6719 27.6953 35.3047 30.0156 35.3047 32.6562V33.1953C35.3047 35.8516 35.6719 38.1953 36.4062 40.2266C37.1406 42.2422 38.2188 43.8203 39.6406 44.9609C41.0625 46.0859 42.7969 46.6484 44.8438 46.6484ZM62.6094 50V47.0469L66.4297 46.3906V19.5078L62.6094 18.8516V15.875H66.4297H77.3281C80.8906 15.875 83.6719 16.6484 85.6719 18.1953C87.6875 19.7266 88.6953 22.0312 88.6953 25.1094C88.6953 26.625 88.2109 27.9844 87.2422 29.1875C86.2891 30.375 85.0234 31.2578 83.4453 31.8359C84.8203 32.1172 86 32.6719 86.9844 33.5C87.9688 34.3125 88.7266 35.3125 89.2578 36.5C89.8047 37.6719 90.0781 38.9609 90.0781 40.3672C90.0781 43.4922 89.0625 45.8828 87.0312 47.5391C85 49.1797 82.25 50 78.7812 50H62.6094ZM71.0469 46.3906H78.7812C80.8906 46.3906 82.5234 45.875 83.6797 44.8438C84.8516 43.7969 85.4375 42.3203 85.4375 40.4141C85.4375 38.4141 84.9453 36.8438 83.9609 35.7031C82.9922 34.5625 81.5 33.9922 79.4844 33.9922H71.0469V46.3906ZM71.0469 30.3828H78.5234C80.1797 30.3828 81.5156 29.9062 82.5312 28.9531C83.5625 27.9844 84.0781 26.6719 84.0781 25.0156C84.0781 23.1719 83.5 21.7969 82.3438 20.8906C81.1875 19.9688 79.5156 19.5078 77.3281 19.5078H71.0469V30.3828ZM105.898 50.4922C103.82 50.4922 101.82 50.1875 99.8984 49.5781C97.9766 48.9688 96.1406 48.0312 94.3906 46.7656V39.4766H97.9766L98.75 44.8438C99.7656 45.4688 100.867 45.9531 102.055 46.2969C103.242 46.6406 104.523 46.8125 105.898 46.8125C107.461 46.8125 108.781 46.5781 109.859 46.1094C110.953 45.625 111.789 44.9609 112.367 44.1172C112.945 43.2734 113.234 42.2891 113.234 41.1641C113.234 40.1172 112.984 39.1953 112.484 38.3984C111.984 37.6016 111.156 36.9062 110 36.3125C108.859 35.7031 107.297 35.1719 105.312 34.7188C102.969 34.1719 100.984 33.4453 99.3594 32.5391C97.75 31.6172 96.5234 30.5078 95.6797 29.2109C94.8516 27.8984 94.4375 26.3984 94.4375 24.7109C94.4375 22.9297 94.9062 21.3359 95.8438 19.9297C96.7969 18.5234 98.1172 17.4141 99.8047 16.6016C101.492 15.7891 103.461 15.3828 105.711 15.3828C108.102 15.3828 110.211 15.75 112.039 16.4844C113.883 17.2031 115.398 18.0781 116.586 19.1094V25.9297H113L112.227 21.0547C111.523 20.4922 110.648 20.0234 109.602 19.6484C108.555 19.2734 107.258 19.0859 105.711 19.0859C104.398 19.0859 103.242 19.3203 102.242 19.7891C101.242 20.2422 100.461 20.8828 99.8984 21.7109C99.3359 22.5391 99.0547 23.5156 99.0547 24.6406C99.0547 25.625 99.3047 26.4844 99.8047 27.2188C100.32 27.9531 101.148 28.6016 102.289 29.1641C103.445 29.7109 104.984 30.2266 106.906 30.7109C110.5 31.6016 113.219 32.9219 115.062 34.6719C116.922 36.4062 117.852 38.5547 117.852 41.1172C117.852 42.9453 117.359 44.5703 116.375 45.9922C115.391 47.3984 114 48.5 112.203 49.2969C110.422 50.0938 108.32 50.4922 105.898 50.4922Z" fill="#424342"/>
<path d="M127.82 50.3281C126.56 50.3281 125.414 50.0781 124.383 49.5781C123.362 49.0781 122.539 48.3229 121.914 47.3125C121.299 46.3021 120.961 45.0365 120.898 43.5156L120.93 43.4219H123.883C123.924 44.9531 124.273 46.0781 124.93 46.7969C125.596 47.5156 126.544 47.875 127.773 47.875C128.638 47.875 129.346 47.6927 129.898 47.3281C130.451 46.9531 130.857 46.4427 131.117 45.7969C131.388 45.1406 131.523 44.3906 131.523 43.5469V29.6719L128.492 29.2656V27.25H137.148V29.2344L134.602 29.6719V43.5469C134.602 44.901 134.341 46.0885 133.82 47.1094C133.31 48.1302 132.549 48.9219 131.539 49.4844C130.539 50.0469 129.299 50.3281 127.82 50.3281ZM146.836 50.3281C145.003 50.3281 143.57 49.7396 142.539 48.5625C141.508 47.3854 140.992 45.5521 140.992 43.0625V35.5156L139.055 35.0781V33.0938H140.992H144.07V43.0938C144.07 44.8958 144.336 46.1354 144.867 46.8125C145.398 47.4896 146.227 47.8281 147.352 47.8281C148.445 47.8281 149.346 47.6094 150.055 47.1719C150.773 46.724 151.315 46.0938 151.68 45.2812V35.5156L149.414 35.0781V33.0938H151.68H154.758V47.5938L156.695 48.0312V50H151.992L151.789 47.5C151.258 48.4062 150.57 49.1042 149.727 49.5938C148.893 50.0833 147.93 50.3281 146.836 50.3281ZM164.336 50.3281C162.576 50.3281 161.237 49.901 160.32 49.0469C159.404 48.1823 158.945 46.9688 158.945 45.4062C158.945 43.8021 159.602 42.5156 160.914 41.5469C162.227 40.5677 164.049 40.0781 166.383 40.0781H169.398V38.4219C169.398 37.401 169.086 36.6094 168.461 36.0469C167.846 35.4844 166.977 35.2031 165.852 35.2031C165.143 35.2031 164.529 35.2917 164.008 35.4688C163.487 35.6354 163.013 35.8698 162.586 36.1719L162.258 38.5312H159.883V34.6562C160.643 34.0417 161.529 33.5781 162.539 33.2656C163.549 32.9427 164.669 32.7812 165.898 32.7812C167.951 32.7812 169.56 33.2708 170.727 34.25C171.893 35.2292 172.477 36.6302 172.477 38.4531V46.5938C172.477 46.8125 172.477 47.026 172.477 47.2344C172.487 47.4427 172.503 47.651 172.523 47.8594L174.164 48.0312V50H169.742C169.648 49.5417 169.576 49.1302 169.523 48.7656C169.471 48.401 169.435 48.0365 169.414 47.6719C168.82 48.4323 168.076 49.0677 167.18 49.5781C166.294 50.0781 165.346 50.3281 164.336 50.3281ZM164.789 47.75C165.81 47.75 166.742 47.5052 167.586 47.0156C168.43 46.526 169.034 45.9375 169.398 45.25V42.1875H166.273C164.857 42.1875 163.794 42.526 163.086 43.2031C162.378 43.8802 162.023 44.6354 162.023 45.4688C162.023 46.2083 162.253 46.776 162.711 47.1719C163.169 47.5573 163.862 47.75 164.789 47.75Z" fill="#588157"/>
</svg>
